<svg width="22" height="5" viewBox="0 0 22 5" fill="none" xmlns="http://www.w3.org/2000/svg">
<path d="M20.4088 0.136708C20.4266 0.101152 20.4577 0.083374 20.5021 0.083374H21.4421C21.4644 0.083374 21.4821 0.0922628 21.4955 0.110041C21.5132 0.123374 21.5221 0.141152 21.5221 0.163374V4.67004C21.5221 4.69226 21.5132 4.71226 21.4955 4.73004C21.4821 4.74337 21.4644 4.75004 21.4421 4.75004H20.4955C20.4732 4.75004 20.4532 4.74337 20.4355 4.73004C20.4221 4.71226 20.4155 4.69226 20.4155 4.67004V1.99004C20.4155 1.97226 20.411 1.96337 20.4021 1.96337C20.3932 1.96337 20.3844 1.97004 20.3755 1.98337L19.8021 2.90337C19.7844 2.93893 19.7532 2.95671 19.7088 2.95671H19.2355C19.191 2.95671 19.1599 2.93893 19.1421 2.90337L18.5621 1.97671C18.5532 1.96337 18.5444 1.95671 18.5355 1.95671C18.5266 1.95671 18.5221 1.9656 18.5221 1.98337V4.67004C18.5221 4.69226 18.5132 4.71226 18.4955 4.73004C18.4821 4.74337 18.4644 4.75004 18.4421 4.75004H17.4955C17.4732 4.75004 17.4532 4.74337 17.4355 4.73004C17.4221 4.71226 17.4155 4.69226 17.4155 4.67004V0.163374C17.4155 0.141152 17.4221 0.123374 17.4355 0.110041C17.4532 0.0922628 17.4732 0.083374 17.4955 0.083374H18.4355C18.4755 0.083374 18.5066 0.101152 18.5288 0.136708L19.4555 1.59004C19.4688 1.61671 19.4821 1.61671 19.4955 1.59004L20.4088 0.136708Z" fill="white"/>
<path d="M14.7481 4.82336C14.3881 4.82336 14.0704 4.75225 13.7948 4.61003C13.5237 4.46336 13.3126 4.25892 13.1615 3.9967C13.0104 3.73447 12.9348 3.43003 12.9348 3.08336V1.75003C12.9348 1.41225 13.0104 1.11447 13.1615 0.856696C13.3126 0.594474 13.5237 0.392252 13.7948 0.250029C14.0704 0.103363 14.3881 0.0300293 14.7481 0.0300293C15.1081 0.0300293 15.4259 0.103363 15.7015 0.250029C15.977 0.392252 16.1904 0.594474 16.3415 0.856696C16.4926 1.11447 16.5681 1.41225 16.5681 1.75003V3.08336C16.5681 3.43003 16.4926 3.73447 16.3415 3.9967C16.1904 4.25892 15.977 4.46336 15.7015 4.61003C15.4259 4.75225 15.1081 4.82336 14.7481 4.82336ZM14.7481 3.8767C14.9615 3.8767 15.1326 3.80781 15.2615 3.67003C15.3948 3.53225 15.4615 3.34781 15.4615 3.1167V1.7367C15.4615 1.51003 15.3948 1.32781 15.2615 1.19003C15.1326 1.04781 14.9615 0.976696 14.7481 0.976696C14.5393 0.976696 14.3681 1.04781 14.2348 1.19003C14.1059 1.32781 14.0415 1.51003 14.0415 1.7367V3.1167C14.0415 3.34781 14.1059 3.53225 14.2348 3.67003C14.3681 3.80781 14.5393 3.8767 14.7481 3.8767Z" fill="white"/>
<path d="M10.3409 4.82336C9.98086 4.82336 9.66308 4.75225 9.38753 4.61003C9.11642 4.46336 8.90531 4.25892 8.75419 3.9967C8.60308 3.73447 8.52753 3.43003 8.52753 3.08336V1.75003C8.52753 1.41225 8.60308 1.11447 8.75419 0.856696C8.90531 0.594474 9.11642 0.392252 9.38753 0.250029C9.66308 0.103363 9.98086 0.0300293 10.3409 0.0300293C10.7009 0.0300293 11.0186 0.103363 11.2942 0.250029C11.5697 0.392252 11.7831 0.594474 11.9342 0.856696C12.0853 1.11447 12.1609 1.41225 12.1609 1.75003V3.08336C12.1609 3.43003 12.0853 3.73447 11.9342 3.9967C11.7831 4.25892 11.5697 4.46336 11.2942 4.61003C11.0186 4.75225 10.7009 4.82336 10.3409 4.82336ZM10.3409 3.8767C10.5542 3.8767 10.7253 3.80781 10.8542 3.67003C10.9875 3.53225 11.0542 3.34781 11.0542 3.1167V1.7367C11.0542 1.51003 10.9875 1.32781 10.8542 1.19003C10.7253 1.04781 10.5542 0.976696 10.3409 0.976696C10.132 0.976696 9.96086 1.04781 9.82753 1.19003C9.69864 1.32781 9.63419 1.51003 9.63419 1.7367V3.1167C9.63419 3.34781 9.69864 3.53225 9.82753 3.67003C9.96086 3.80781 10.132 3.8767 10.3409 3.8767Z" fill="white"/>
<path d="M4.6577 4.75004C4.63548 4.75004 4.61548 4.74337 4.5977 4.73004C4.58436 4.71226 4.5777 4.69226 4.5777 4.67004V0.163374C4.5777 0.141152 4.58436 0.123374 4.5977 0.110041C4.61548 0.0922628 4.63548 0.083374 4.6577 0.083374H5.60436C5.62659 0.083374 5.64436 0.0922628 5.6577 0.110041C5.67548 0.123374 5.68436 0.141152 5.68436 0.163374V3.77004C5.68436 3.79226 5.69548 3.80337 5.7177 3.80337H7.84436C7.86659 3.80337 7.88436 3.81226 7.8977 3.83004C7.91548 3.84337 7.92436 3.86115 7.92436 3.88337V4.67004C7.92436 4.69226 7.91548 4.71226 7.8977 4.73004C7.88436 4.74337 7.86659 4.75004 7.84436 4.75004H4.6577Z" fill="white"/>
<path d="M2.31331 0.083374C2.61553 0.083374 2.8822 0.145596 3.11331 0.270041C3.34886 0.394485 3.52886 0.570041 3.65331 0.796707C3.7822 1.01893 3.84664 1.27671 3.84664 1.57004C3.84664 1.85893 3.77997 2.11449 3.64664 2.33671C3.51775 2.55893 3.33331 2.73004 3.09331 2.85004C2.85331 2.97004 2.57553 3.03004 2.25997 3.03004H1.44664C1.42442 3.03004 1.41331 3.04115 1.41331 3.06337V4.67004C1.41331 4.69226 1.40442 4.71226 1.38664 4.73004C1.37331 4.74337 1.35553 4.75004 1.33331 4.75004H0.386641C0.364418 4.75004 0.344418 4.74337 0.326641 4.73004C0.313307 4.71226 0.306641 4.69226 0.306641 4.67004V0.163374C0.306641 0.141152 0.313307 0.123374 0.326641 0.110041C0.344418 0.0922628 0.364418 0.083374 0.386641 0.083374H2.31331ZM2.13331 2.15004C2.31553 2.15004 2.4622 2.09893 2.57331 1.99671C2.68886 1.89449 2.74664 1.76115 2.74664 1.59671C2.74664 1.42782 2.68886 1.29226 2.57331 1.19004C2.4622 1.08337 2.31553 1.03004 2.13331 1.03004H1.44664C1.42442 1.03004 1.41331 1.04115 1.41331 1.06337V2.11671C1.41331 2.13893 1.42442 2.15004 1.44664 2.15004H2.13331Z" fill="white"/>
</svg>
