<svg width="88" height="32" viewBox="0 0 88 32" fill="none" xmlns="http://www.w3.org/2000/svg">
<path d="M81.6352 8.54665C81.7063 8.40442 81.8308 8.33331 82.0085 8.33331H85.7685C85.8574 8.33331 85.9285 8.36887 85.9819 8.43998C86.053 8.49331 86.0885 8.56442 86.0885 8.65331V26.68C86.0885 26.7689 86.053 26.8489 85.9819 26.92C85.9285 26.9733 85.8574 27 85.7685 27H81.9819C81.893 27 81.813 26.9733 81.7419 26.92C81.6885 26.8489 81.6619 26.7689 81.6619 26.68V15.96C81.6619 15.8889 81.6441 15.8533 81.6085 15.8533C81.573 15.8533 81.5374 15.88 81.5019 15.9333L79.2085 19.6133C79.1374 19.7555 79.013 19.8266 78.8352 19.8266H76.9419C76.7641 19.8266 76.6396 19.7555 76.5685 19.6133L74.2485 15.9066C74.213 15.8533 74.1774 15.8266 74.1419 15.8266C74.1063 15.8266 74.0885 15.8622 74.0885 15.9333V26.68C74.0885 26.7689 74.053 26.8489 73.9819 26.92C73.9285 26.9733 73.8574 27 73.7685 27H69.9819C69.893 27 69.813 26.9733 69.7419 26.92C69.6885 26.8489 69.6619 26.7689 69.6619 26.68V8.65331C69.6619 8.56442 69.6885 8.49331 69.7419 8.43998C69.813 8.36887 69.893 8.33331 69.9819 8.33331H73.7419C73.9019 8.33331 74.0263 8.40442 74.1152 8.54665L77.8219 14.36C77.8752 14.4666 77.9285 14.4666 77.9819 14.36L81.6352 8.54665Z" fill="white"/>
<path d="M58.9927 27.2933C57.5527 27.2933 56.2816 27.0089 55.1794 26.44C54.0949 25.8533 53.2505 25.0356 52.646 23.9867C52.0416 22.9378 51.7394 21.72 51.7394 20.3333V15C51.7394 13.6489 52.0416 12.4578 52.646 11.4267C53.2505 10.3778 54.0949 9.56888 55.1794 9C56.2816 8.41333 57.5527 8.12 58.9927 8.12C60.4327 8.12 61.7038 8.41333 62.806 9C63.9083 9.56888 64.7616 10.3778 65.366 11.4267C65.9705 12.4578 66.2727 13.6489 66.2727 15V20.3333C66.2727 21.72 65.9705 22.9378 65.366 23.9867C64.7616 25.0356 63.9083 25.8533 62.806 26.44C61.7038 27.0089 60.4327 27.2933 58.9927 27.2933ZM58.9927 23.5067C59.846 23.5067 60.5305 23.2311 61.046 22.68C61.5794 22.1289 61.8461 21.3911 61.8461 20.4667V14.9467C61.8461 14.04 61.5794 13.3111 61.046 12.76C60.5305 12.1911 59.846 11.9067 58.9927 11.9067C58.1572 11.9067 57.4727 12.1911 56.9394 12.76C56.4238 13.3111 56.166 14.04 56.166 14.9467V20.4667C56.166 21.3911 56.4238 22.1289 56.9394 22.68C57.4727 23.2311 58.1572 23.5067 58.9927 23.5067Z" fill="white"/>
<path d="M41.3636 27.2933C39.9236 27.2933 38.6525 27.0089 37.5502 26.44C36.4658 25.8533 35.6213 25.0356 35.0169 23.9867C34.4125 22.9378 34.1102 21.72 34.1102 20.3333V15C34.1102 13.6489 34.4125 12.4578 35.0169 11.4267C35.6213 10.3778 36.4658 9.56888 37.5502 9C38.6525 8.41333 39.9236 8.12 41.3636 8.12C42.8036 8.12 44.0747 8.41333 45.1769 9C46.2791 9.56888 47.1325 10.3778 47.7369 11.4267C48.3413 12.4578 48.6436 13.6489 48.6436 15V20.3333C48.6436 21.72 48.3413 22.9378 47.7369 23.9867C47.1325 25.0356 46.2791 25.8533 45.1769 26.44C44.0747 27.0089 42.8036 27.2933 41.3636 27.2933ZM41.3636 23.5067C42.2169 23.5067 42.9013 23.2311 43.4169 22.68C43.9502 22.1289 44.2169 21.3911 44.2169 20.4667V14.9467C44.2169 14.04 43.9502 13.3111 43.4169 12.76C42.9013 12.1911 42.2169 11.9067 41.3636 11.9067C40.528 11.9067 39.8436 12.1911 39.3102 12.76C38.7947 13.3111 38.5369 14.04 38.5369 14.9467V20.4667C38.5369 21.3911 38.7947 22.1289 39.3102 22.68C39.8436 23.2311 40.528 23.5067 41.3636 23.5067Z" fill="white"/>
<path d="M18.6309 27C18.542 27 18.462 26.9733 18.3909 26.92C18.3375 26.8489 18.3109 26.7689 18.3109 26.68V8.65331C18.3109 8.56442 18.3375 8.49331 18.3909 8.43998C18.462 8.36887 18.542 8.33331 18.6309 8.33331H22.4175C22.5064 8.33331 22.5775 8.36887 22.6309 8.43998C22.702 8.49331 22.7375 8.56442 22.7375 8.65331V23.08C22.7375 23.1689 22.782 23.2133 22.8709 23.2133H31.3775C31.4664 23.2133 31.5375 23.2489 31.5909 23.32C31.662 23.3733 31.6975 23.4444 31.6975 23.5333V26.68C31.6975 26.7689 31.662 26.8489 31.5909 26.92C31.5375 26.9733 31.4664 27 31.3775 27H18.6309Z" fill="white"/>
<path d="M9.25335 8.33331C10.4622 8.33331 11.5289 8.5822 12.4534 9.07998C13.3956 9.57776 14.1156 10.28 14.6134 11.1866C15.1289 12.0755 15.3867 13.1066 15.3867 14.28C15.3867 15.4355 15.12 16.4578 14.5867 17.3466C14.0711 18.2355 13.3334 18.92 12.3734 19.4C11.4134 19.88 10.3022 20.12 9.04002 20.12H5.78668C5.6978 20.12 5.65335 20.1644 5.65335 20.2533V26.68C5.65335 26.7689 5.6178 26.8489 5.54668 26.92C5.49335 26.9733 5.42224 27 5.33335 27H1.54668C1.4578 27 1.3778 26.9733 1.30668 26.92C1.25335 26.8489 1.22668 26.7689 1.22668 26.68V8.65331C1.22668 8.56442 1.25335 8.49331 1.30668 8.43998C1.3778 8.36887 1.4578 8.33331 1.54668 8.33331H9.25335ZM8.53335 16.6C9.26224 16.6 9.84891 16.3955 10.2934 15.9866C10.7556 15.5778 10.9867 15.0444 10.9867 14.3866C10.9867 13.7111 10.7556 13.1689 10.2934 12.76C9.84891 12.3333 9.26224 12.12 8.53335 12.12H5.78668C5.6978 12.12 5.65335 12.1644 5.65335 12.2533V16.4666C5.65335 16.5555 5.6978 16.6 5.78668 16.6H8.53335Z" fill="white"/>
</svg>
