<svg width="149" height="149" viewBox="0 0 149 149" fill="none" xmlns="http://www.w3.org/2000/svg">
<path d="M28.9118 92.9523C45.8959 102.315 65.1087 107.329 84.3517 100.911C101.721 95.1168 111.623 80.6334 98.0361 64.8727C91.6046 57.4118 78.9919 52.8649 69.9244 58.1748C59.8225 64.0905 69.3746 76.1033 76.4983 79.2039C93.1364 86.4459 115.028 80.6132 124.396 63.0763C135.491 42.3086 112.618 34.3358 112.618 34.4968" stroke="white" stroke-width="4" stroke-miterlimit="1.5" stroke-linecap="round" stroke-linejoin="round"/>
<path d="M34.3739 113.857C34.7568 111.746 34.2254 109.709 33.7994 107.65C32.4014 100.887 28.7338 94.05 22.9386 90.0206C30.2669 92.2023 40.5164 92.5648 46.4691 87.1686" stroke="white" stroke-width="4" stroke-miterlimit="1.5" stroke-linecap="round" stroke-linejoin="round"/>
</svg>
