<svg width="108" height="47" viewBox="0 0 108 47" fill="none" xmlns="http://www.w3.org/2000/svg">
<path d="M84.5801 11.8929C68.8525 1.23954 36.3948 -1.29175 18.8994 4.17325C10.9315 6.66221 -4.20564 14.8551 3.1067 25.2561C4.3964 27.0906 6.04618 28.6553 7.7811 30.0472C26.8747 45.3645 55.863 47.6217 78.9882 42.7199C82.4371 41.9889 85.8594 41.0382 89.0813 39.5696C91.491 38.4712 93.8669 37.0344 95.8567 35.2611C101.681 30.0696 101.071 24.0464 96.1855 18.433C90.5217 11.9247 82.0298 9.07646 73.9305 7.09106C66.8482 5.35498 59.69 4.30611 52.4262 3.76161C38.8033 2.74033 23.0686 1.84851 10.7448 8.27026C5.36214 11.0752 -0.868878 17.7193 2.65433 24.1539C6.47221 31.1265 17.0817 34.5409 24.2231 36.794C43.4885 42.8725 74.9064 44.9143 94.045 37.5636C96.1088 36.7709 98.1892 36.0515 100.089 34.9087C101.59 34.0056 103.051 32.945 104.352 31.7626C113.566 23.3822 96.314 15.2693 90.0982 13.4746C70.5442 7.82881 41.5886 -0.409637 22.1731 5.79444" stroke="#0042EC" stroke-width="2" stroke-miterlimit="1.5" stroke-linecap="round" stroke-linejoin="round"/>
</svg>
