<svg width="390" height="158" viewBox="0 0 390 158" fill="none" xmlns="http://www.w3.org/2000/svg">
<path d="M300.741 22.4353C238.83 -8.93518 119.782 -3.62791 58.6741 23.8228C30.8441 36.3248 -20.4737 72.5497 10.7534 106.75C16.2611 112.783 22.9559 117.684 29.8825 121.924C106.113 168.592 212.434 163.84 294.246 135.916C306.448 131.751 318.454 126.807 329.5 120.088C337.762 115.062 345.749 108.833 352.183 101.564C371.016 80.284 366.096 58.8681 345.834 40.827C322.34 19.9097 290.214 13.4276 259.9 9.87756C233.393 6.77341 206.919 6.17732 180.286 7.44422C130.339 9.81987 72.778 13.6 30.8868 42.1977C12.5899 54.6888 -7.06781 81.3801 8.61596 102.983C25.6113 126.392 65.6845 133.972 92.6381 138.912C165.351 152.238 280.401 145.63 346.633 110.66C353.775 106.888 361.011 103.374 367.4 98.415C372.448 94.4965 377.282 90.0285 381.475 85.193C411.191 50.925 344.882 29.3788 321.497 25.6786C247.929 14.0385 139.046 -2.75945 71.2937 28.2055" stroke="#808287" stroke-width="2" stroke-miterlimit="1.5" stroke-linecap="round" stroke-linejoin="round"/>
</svg>
