<svg width="28" height="27" viewBox="0 0 28 27" fill="none" xmlns="http://www.w3.org/2000/svg">
<path d="M8.39996 -0.00415039H19.6C23.8666 -0.00415039 27.3333 3.46252 27.3333 7.72918V18.9292C27.3333 20.9802 26.5185 22.9472 25.0683 24.3975C23.618 25.8478 21.651 26.6625 19.6 26.6625H8.39996C4.13329 26.6625 0.666626 23.1959 0.666626 18.9292V7.72918C0.666626 5.67818 1.48139 3.71117 2.93167 2.26089C4.38195 0.810609 6.34895 -0.00415039 8.39996 -0.00415039ZM8.13329 2.66252C6.86025 2.66252 5.63936 3.16823 4.73918 4.0684C3.83901 4.96858 3.33329 6.18948 3.33329 7.46252V19.1959C3.33329 21.8492 5.47996 23.9958 8.13329 23.9958H19.8666C21.1397 23.9958 22.3606 23.4901 23.2607 22.59C24.1609 21.6898 24.6666 20.4689 24.6666 19.1959V7.46252C24.6666 4.80918 22.52 2.66252 19.8666 2.66252H8.13329ZM21 4.66252C21.442 4.66252 21.8659 4.83811 22.1785 5.15067C22.491 5.46323 22.6666 5.88716 22.6666 6.32918C22.6666 6.77121 22.491 7.19513 22.1785 7.50769C21.8659 7.82026 21.442 7.99585 21 7.99585C20.5579 7.99585 20.134 7.82026 19.8214 7.50769C19.5089 7.19513 19.3333 6.77121 19.3333 6.32918C19.3333 5.88716 19.5089 5.46323 19.8214 5.15067C20.134 4.83811 20.5579 4.66252 21 4.66252ZM14 6.66252C15.7681 6.66252 17.4638 7.3649 18.714 8.61514C19.9642 9.86538 20.6666 11.5611 20.6666 13.3292C20.6666 15.0973 19.9642 16.793 18.714 18.0432C17.4638 19.2935 15.7681 19.9958 14 19.9958C12.2318 19.9958 10.5362 19.2935 9.28591 18.0432C8.03567 16.793 7.33329 15.0973 7.33329 13.3292C7.33329 11.5611 8.03567 9.86538 9.28591 8.61514C10.5362 7.3649 12.2318 6.66252 14 6.66252ZM14 9.32918C12.9391 9.32918 11.9217 9.75061 11.1715 10.5008C10.4214 11.2509 9.99996 12.2683 9.99996 13.3292C9.99996 14.39 10.4214 15.4075 11.1715 16.1576C11.9217 16.9078 12.9391 17.3292 14 17.3292C15.0608 17.3292 16.0782 16.9078 16.8284 16.1576C17.5785 15.4075 18 14.39 18 13.3292C18 12.2683 17.5785 11.2509 16.8284 10.5008C16.0782 9.75061 15.0608 9.32918 14 9.32918Z" fill="white"/>
</svg>
