<svg width="24" height="25" viewBox="0 0 24 25" fill="none" xmlns="http://www.w3.org/2000/svg">
<path d="M21.3333 0.329102C22.0406 0.329102 22.7189 0.610053 23.219 1.11015C23.719 1.61025 24 2.28852 24 2.99577V21.6624C24 22.3697 23.719 23.048 23.219 23.5481C22.7189 24.0482 22.0406 24.3291 21.3333 24.3291H2.66667C1.95942 24.3291 1.28115 24.0482 0.781048 23.5481C0.280951 23.048 0 22.3697 0 21.6624V2.99577C0 2.28852 0.280951 1.61025 0.781048 1.11015C1.28115 0.610053 1.95942 0.329102 2.66667 0.329102H21.3333ZM20.6667 20.9958V13.9291C20.6667 12.7763 20.2087 11.6707 19.3936 10.8555C18.5784 10.0404 17.4728 9.58243 16.32 9.58243C15.1867 9.58243 13.8667 10.2758 13.2267 11.3158V9.83577H9.50667V20.9958H13.2267V14.4224C13.2267 13.3958 14.0533 12.5558 15.08 12.5558C15.5751 12.5558 16.0499 12.7524 16.3999 13.1025C16.75 13.4526 16.9467 13.9274 16.9467 14.4224V20.9958H20.6667ZM5.17333 7.74244C5.76742 7.74244 6.33717 7.50644 6.75725 7.08635C7.17733 6.66627 7.41333 6.09652 7.41333 5.50244C7.41333 4.26244 6.41333 3.2491 5.17333 3.2491C4.57571 3.2491 4.00257 3.48651 3.57999 3.90909C3.1574 4.33167 2.92 4.90481 2.92 5.50244C2.92 6.74244 3.93333 7.74244 5.17333 7.74244ZM7.02667 20.9958V9.83577H3.33333V20.9958H7.02667Z" fill="white"/>
</svg>
